<?xml version="1.0" encoding="utf-8"?>
<!-- Generator: Adobe Illustrator 23.0.4, SVG Export Plug-In . SVG Version: 6.00 Build 0)  -->
<svg version="1.1" id="Ebene_1" xmlns="http://www.w3.org/2000/svg" xmlns:xlink="http://www.w3.org/1999/xlink" x="0px" y="0px"
	 viewBox="0 0 512 512" style="enable-background:new 0 0 512 512;" xml:space="preserve">
<style type="text/css">
	.st0{fill:#FFFFFF;}
</style>
<g>
	<path class="st0" d="M365,365c-72,0-144,0-216,0c0-72,0-144,0-216c72,0,144,0,216,0C365,221,365,293,365,365z M359.8,256.9
		c0-19.7,0-39.3,0-59c-0.1-25.7-18-43.7-43.6-43.7c-39.3,0-78.6,0-117.9,0c-3,0-6,0-8.9,0.6c-21.2,4.3-35,21.3-35,43
		c0,38.6,0,77.3,0,115.9c0,28,17.9,45.9,45.8,45.9c38.5,0,77-0.2,115.4,0.1c27.1,0.2,45.1-21.5,44.4-44.4
		C359.3,295.9,359.8,276.4,359.8,256.9z"/>
	<path d="M359.8,256.9c0,19.5-0.5,39,0.1,58.5c0.8,22.9-17.3,44.6-44.4,44.4c-38.5-0.3-77-0.1-115.4-0.1c-27.9,0-45.8-18-45.8-45.9
		c0-38.6,0-77.3,0-115.9c0-21.7,13.8-38.8,35-43c2.9-0.6,6-0.6,8.9-0.6c39.3,0,78.6-0.1,117.9,0c25.6,0,43.5,18,43.6,43.7
		C359.9,217.6,359.8,237.2,359.8,256.9z M170.7,256.5c0,19.7-0.1,39.3,0,59c0.1,16.8,11,27.8,27.8,27.8c39,0.1,78,0.1,117,0
		c17.2,0,28.3-10.8,28.3-28c0.1-39,0.1-78,0-117c-0.1-17.1-11.1-28.1-28.2-28.2c-39-0.1-78-0.1-117,0c-17.2,0.1-27.9,11.1-28,28.3
		C170.6,217.8,170.7,237.2,170.7,256.5z"/>
	<path d="M300.8,215c4.8,4.8,7.2,7.1,11.2,11c-23.9,24.4-47.6,48.6-71.6,73.1c-12.8-12.3-24.2-23.2-37-35.5l11.3-11.6
		c6.5,6.2,25.8,24.4,25.8,24.4l0,0L300.8,215z"/>
</g>
</svg>
